<?xml version="1.0" encoding="UTF-8"?>
<svg width="512px" height="512px" viewBox="0 0 512 512" version="1.1" xmlns="http://www.w3.org/2000/svg" xmlns:xlink="http://www.w3.org/1999/xlink">
    <title>Frame</title>
    <defs>
        <path d="M0,0 L512,0 L512,512 L0,512 L0,0 Z" id="path-1"></path>
    </defs>
    <g id="Frame" stroke="none" fill="none" xlink:href="#path-1" fill-rule="evenodd">
        <use fill="#FFFFFF" xlink:href="#path-1"></use>
        <rect id="Rectangle" fill="#059669" x="0" y="0" width="512" height="512"></rect>
        <g id="DemandGenix-White" stroke-width="1" transform="translate(69, 34)" fill="#FFFFFF">
            <path d="M0,444 L0,0 L143.982609,0 C190.603261,0 231.133786,9.4114094 265.574185,28.2342282 C300.014583,47.057047 326.695652,73.1308725 345.617391,106.455705 C364.53913,139.780537 374,178.267366 374,221.916191 C374,265.180117 364.53913,303.573826 345.617391,337.097315 C326.695652,370.620805 300.014583,396.818792 265.574185,415.691275 C231.133786,434.563758 190.603261,444 143.982609,444 L0,444 Z M80.5652174,372.483221 L145.756522,372.483221 C175.697464,372.483221 201.636322,366.275168 223.573098,353.85906 C245.509873,341.442953 262.53913,323.947106 274.66087,301.371518 C286.782609,278.795931 292.843478,252.174245 292.843478,221.50646 C292.843478,190.844883 286.762591,164.324077 274.600815,141.944044 C262.43904,119.56401 245.414402,102.231124 223.526902,89.9453859 C201.639402,77.6596477 175.715942,71.5167785 145.756522,71.5167785 L80.5652174,71.5167785 L80.5652174,372.483221 Z" id="Shape" fill-rule="nonzero"></path>
        </g>
    </g>
</svg>